Patient4_TMGait_0pt7_02_right_51_GRF.mot
version=1
nRows=72
nColumns=19
inDegrees=no
endheader
time	F1x	F1y	F1z	M1x	M1y	M1z	F2x	F2y	F2z	M2x	M2y	M2z	EC1x	EC1y	EC1z	EC2x	EC2y	EC2z
57.88	13.2115	772.3931	59.5297	-258.0233	-57.3337	786.9999	-8.7412	3.4285	10.3971	-1.3551	-3.3832	5.2888	-0.0592	0.0182	-0.0073	-0.0462	0.0165	0.9585
57.8911	9.5906	765.5751	63.3498	-256.5019	-60.2454	771.6909	-5.6258	3.0415	6.7615	-0.57645	-2.1268	4.4796	-0.0592	0.0182	-0.0073	-0.0462	0.0165	0.9585
57.9021	7.3165	757.5691	66.2544	-254.3172	-61.983	755.5357	-3.0635	2.7604	3.7766	0.076771	-1.1031	3.8468	-0.0592	0.0182	-0.0073	-0.0462	0.0165	0.9585
57.9132	6.5764	748.8172	68.0617	-251.5891	-62.4225	739.3313	-1.1621	2.594	1.5611	0.57621	-0.34655	3.415	-0.0592	0.0182	-0.0073	-0.0462	0.0165	0.9585
57.9243	7.1951	739.7097	68.8841	-248.4858	-61.75	723.5929	0.10609	2.5492	0.075207	0.93194	0.15916	3.2023	-0.0592	0.0182	-0.0073	-0.0462	0.0165	0.9585
57.9354	8.9262	730.6104	68.9186	-245.1968	-60.2169	708.6241	0.84131	2.5818	-0.81047	1.1612	0.46423	3.1358	-0.0592	0.0182	-0.0073	-0.0462	0.0165	0.9585
57.9464	11.4134	721.8445	68.4281	-241.9014	-58.1445	694.609	1.17	2.6632	-1.256	1.2907	0.63283	3.1732	-0.0592	0.0182	-0.0073	-0.0462	0.0165	0.9585
57.9575	14.4114	713.7058	67.6375	-238.7613	-55.7803	681.6373	1.2248	2.7208	-1.4119	1.3326	0.71817	3.2055	-0.0592	0.0182	-0.0073	-0.0462	0.0165	0.9585
57.9686	17.7347	706.538	66.7542	-235.9359	-53.3318	669.8541	1.0927	2.6998	-1.4023	1.2953	0.76713	3.1573	-0.0592	0.0182	-0.0073	-0.0462	0.0165	0.9585
57.9796	21.2756	700.657	65.9633	-233.5684	-50.9636	659.3823	0.8723	2.5036	-1.3348	1.1672	0.82063	2.904	-0.0592	0.0182	-0.0073	-0.0462	0.0165	0.9585
57.9907	25.0046	696.4559	65.4019	-231.8087	-48.7821	650.4808	0.60299	2.0428	-1.2632	0.92849	0.8984	2.3488	-0.0592	0.0182	-0.0073	-0.0462	0.0165	0.9585
58.0018	28.917	694.2878	65.192	-230.7866	-46.8766	643.3814	0.34721	1.1969	-1.2314	0.54369	1.0136	1.3485	-0.0592	0.0182	-0.0073	-0.0462	0.0165	0.9585
58.0129	33.0585	694.5135	65.4058	-230.6244	-45.2832	638.3479	0.12373	-0.11384	-1.2286	-0.013303	1.1392	-0.18095	-0.0592	0.0182	-0.0073	-0.0462	0.0165	0.9585
58.0239	37.485	697.4089	66.0925	-231.4143	-44.0161	635.5876	-0.021132	-1.9513	-1.2419	-0.75882	1.2323	-2.316	-0.0592	0.0182	-0.0073	-0.0462	0.0165	0.9585
58.035	42.2161	703.1321	67.2397	-233.2082	-43.0446	635.2154	-0.042911	-4.2456	-1.218	-1.6624	1.2105	-4.9669	-0.0592	0.0182	-0.0073	-0.0462	0.0165	0.9585
58.0461	47.2273	711.6429	68.811	-235.9869	-42.3357	637.2106	0.14146	-6.7805	-1.0776	-2.6341	0.95552	-7.8929	-0.0592	0.0182	-0.0073	-0.0462	0.0165	0.9585
58.0571	52.4144	722.5807	70.7226	-239.6207	-41.8416	641.2945	0.61142	-9.0355	-0.71519	-3.4741	0.32152	-10.5007	-0.0592	0.0182	-0.0073	-0.0462	0.0165	0.9585
58.0682	57.5862	735.1986	72.8655	-243.8412	-41.5277	646.8958	1.4811	-10.1802	0.0025783	-3.8553	-0.8729	-11.8437	-0.0592	0.0182	-0.0073	-0.0462	0.0165	0.9585
58.0793	62.4844	748.2915	75.0794	-248.22	-41.3431	653.0906	2.8271	-8.9208	1.189	-3.2793	-2.7781	-10.4253	-0.0592	0.0182	-0.0073	-0.0462	0.0165	0.9585
58.0904	66.7602	760.3446	77.1747	-252.2188	-41.2477	658.7314	4.7041	-3.5198	2.9589	-1.0766	-5.5325	-4.2568	-0.0592	0.0182	-0.0073	-0.0462	0.0165	0.9585
58.1014	70.1033	769.739	78.9344	-255.2691	-41.1755	662.5755	7.0531	8.1695	5.3437	3.5725	-9.1392	9.1535	-0.0592	0.0182	-0.0073	-0.0462	0.0165	0.9585
58.1125	72.2806	774.9454	80.1259	-256.8455	-41.0302	663.447	9.6692	28.4924	8.2512	11.5544	-13.3946	32.5266	-0.0592	0.0182	-0.0073	-0.0462	0.0165	0.9585
58.1236	73.2429	774.6376	80.5179	-256.5137	-40.6639	660.2788	12.086	59.5172	11.374	23.6373	-17.7449	68.2891	-0.0592	0.0182	-0.0073	-0.0462	0.0165	0.9585
58.1346	73.1202	767.7432	79.8598	-253.9458	-39.8534	652.1697	13.4625	102.3659	14.0794	40.2036	-21.1188	117.783	-0.0592	0.0182	-0.0073	-0.0462	0.0165	0.9585
58.1457	72.1793	753.3451	77.9489	-248.889	-38.3657	638.2478	12.2853	156.2724	15.4514	60.8873	-21.8729	180.1635	-0.0592	0.0182	-0.0073	-0.0462	0.0165	0.9585
58.1568	70.7053	730.6052	74.6135	-241.1263	-35.977	617.6971	6.9574	217.6619	14.3379	84.2327	-18.0917	251.3418	-0.0592	0.0182	-0.0073	-0.0462	0.0165	0.9585
58.1679	68.8737	698.6475	69.8192	-230.4211	-32.6112	589.652	-2.465	280.3712	9.6879	107.8312	-8.7092	324.1346	-0.0592	0.0182	-0.0073	-0.0462	0.0165	0.9585
58.1789	66.589	656.7434	63.6574	-216.5621	-28.374	553.4453	-14.038	338.2916	1.7704	129.3749	5.1408	391.233	-0.0592	0.0182	-0.0073	-0.0462	0.0165	0.9585
58.19	63.6289	604.7758	56.4095	-199.5022	-23.5666	508.9691	-25.703	388.6381	-8.2782	147.8303	21.3117	449.1055	-0.0592	0.0182	-0.0073	-0.0462	0.0165	0.9585
58.2011	59.6775	543.6357	48.4648	-179.4991	-18.5897	457.0116	-36.0859	431.9878	-19.3431	163.4664	38.0014	498.1133	-0.0592	0.0182	-0.0073	-0.0462	0.0165	0.9585
58.2121	54.5536	475.2465	40.3148	-157.1359	-13.8771	399.1921	-44.521	470.8523	-30.429	177.284	53.8245	541.0743	-0.0592	0.0182	-0.0073	-0.0462	0.0165	0.9585
58.2232	48.1346	402.4174	32.4126	-133.2849	-9.8006	337.8841	-50.7242	507.6993	-40.5906	190.2896	67.6302	580.8411	-0.0592	0.0182	-0.0073	-0.0462	0.0165	0.9585
58.2343	40.5071	328.5478	25.1466	-109.0262	-6.6245	275.8875	-54.7839	544.0802	-49.2385	203.1231	78.7957	619.2932	-0.0592	0.0182	-0.0073	-0.0462	0.0165	0.9585
58.2454	31.9616	257.3036	18.7938	-85.5501	-4.4652	216.2471	-56.9026	580.3865	-56.1207	215.9663	87.1423	656.9569	-0.0592	0.0182	-0.0073	-0.0462	0.0165	0.9585
58.2564	23.133	192.1808	13.474	-64.0187	-3.2071	161.807	-57.4603	616.1193	-61.4028	228.6282	93.0122	693.3664	-0.0592	0.0182	-0.0073	-0.0462	0.0165	0.9585
58.2675	14.8605	135.9154	9.216	-45.3565	-2.5921	114.7939	-56.8181	650.3296	-65.5668	240.7149	97.0839	727.5726	-0.0592	0.0182	-0.0073	-0.0462	0.0165	0.9585
58.2786	7.9345	89.9331	5.9625	-30.0658	-2.3119	76.3241	-55.3363	681.8358	-69.0447	251.7445	99.9949	758.4027	-0.0592	0.0182	-0.0073	-0.0462	0.0165	0.9585
58.2896	2.7504	54.4132	3.5808	-18.2313	-2.1321	46.5415	-53.3654	709.4541	-72.3005	261.2356	102.389	784.7	-0.0592	0.0182	-0.0073	-0.0462	0.0165	0.9585
58.3007	-0.66776	28.6212	1.8983	-9.6285	-1.9146	24.8436	-51.2075	732.2444	-75.4359	268.8284	104.5189	805.5521	-0.0592	0.0182	-0.0073	-0.0462	0.0165	0.9585
58.3118	-2.5391	11.2962	0.80238	-3.843	-1.6546	10.2168	-49.1298	749.7615	-78.4186	274.3682	106.4559	820.5973	-0.0592	0.0182	-0.0073	-0.0462	0.0165	0.9585
58.3229	-3.2184	0.82099	0.15952	-0.34033	-1.3662	1.3317	-47.1822	762.1104	-80.9959	277.9261	107.9734	830.0115	-0.0592	0.0182	-0.0073	-0.0462	0.0165	0.9585
58.3339	-3.1649	-4.4901	-0.13981	1.4429	-1.1128	-3.2029	-45.4017	769.7766	-82.9203	279.7196	108.8294	834.3889	-0.0592	0.0182	-0.0073	-0.0462	0.0165	0.9585
58.345	-2.7316	-6.2937	-0.21534	2.0571	-0.91198	-4.7655	-43.7284	773.3869	-84.0604	280.0182	108.8701	834.4348	-0.0592	0.0182	-0.0073	-0.0462	0.0165	0.9585
58.3561	-2.1589	-5.9602	-0.15871	1.9587	-0.76733	-4.5113	-42.1882	773.6753	-84.402	279.1136	108.0866	830.9885	-0.0592	0.0182	-0.0073	-0.0462	0.0165	0.9585
58.3671	-1.5956	-4.5331	-0.039482	1.4929	-0.67233	-3.3176	-40.7407	771.3436	-84.1005	277.2811	106.628	824.8018	-0.0592	0.0182	-0.0073	-0.0462	0.0165	0.9585
58.3782	-1.1056	-2.7205	0.09294	0.8937	-0.61316	-1.7881	-39.3878	767.1429	-83.3078	274.8034	104.6606	816.6887	-0.0592	0.0182	-0.0073	-0.0462	0.0165	0.9585
58.3893	-0.73566	-0.94654	0.22862	0.30338	-0.60261	-0.27522	-38.067	761.7497	-82.1978	271.9419	102.3586	807.3277	-0.0592	0.0182	-0.0073	-0.0462	0.0165	0.9585
58.4004	-0.47072	0.54809	0.33845	-0.19982	-0.61194	1.0031	-36.7302	755.8232	-80.8974	268.9478	99.8448	797.3852	-0.0592	0.0182	-0.0073	-0.0462	0.0165	0.9585
58.4114	-0.31469	1.6979	0.43227	-0.59027	-0.64939	1.998	-35.2931	749.9036	-79.486	266.0315	97.18	787.3666	-0.0592	0.0182	-0.0073	-0.0462	0.0165	0.9585
58.4225	-0.22638	2.4851	0.49962	-0.86424	-0.68893	2.6743	-33.7096	744.4486	-78.0301	263.3675	94.4245	777.715	-0.0592	0.0182	-0.0073	-0.0462	0.0165	0.9585
58.4336	-0.19833	2.989	0.55142	-1.0439	-0.73414	3.1223	-31.9027	739.7625	-76.6021	261.0715	91.6384	768.6992	-0.0592	0.0182	-0.0073	-0.0462	0.0165	0.9585
58.4446	-0.18541	3.2674	0.58618	-1.15	-0.76748	3.374	-29.8613	735.9865	-75.278	259.1954	88.9009	760.4441	-0.0592	0.0182	-0.0073	-0.0462	0.0165	0.9585
58.4557	-0.20634	3.418	0.60334	-1.2109	-0.79126	3.5361	-27.5404	733.1214	-74.1101	257.7394	86.2533	752.919	-0.0592	0.0182	-0.0073	-0.0462	0.0165	0.9585
58.4668	-0.23243	3.4827	0.62276	-1.2429	-0.81737	3.6148	-24.9336	731.0314	-73.1278	256.6564	83.7205	745.9723	-0.0592	0.0182	-0.0073	-0.0462	0.0165	0.9585
58.4779	-0.30707	3.513	0.63601	-1.26	-0.85151	3.6641	-22.0137	729.4879	-72.3351	255.8692	81.2946	739.3367	-0.0592	0.0182	-0.0073	-0.0462	0.0165	0.9585
58.4889	-0.39471	3.4953	0.665	-1.2554	-0.90662	3.6412	-18.7837	728.2677	-71.6814	255.3034	78.921	732.7682	-0.0592	0.0182	-0.0073	-0.0462	0.0165	0.9585
58.5	-0.5309	3.4064	0.69639	-1.2168	-0.97929	3.5443	-15.2248	727.1964	-71.0968	254.9035	76.5201	726.0675	-0.0592	0.0182	-0.0073	-0.0462	0.0165	0.9585
58.5111	-0.68118	3.1684	0.75895	-1.1182	-1.0919	3.2604	-11.3196	726.2255	-70.4909	254.658	73.9941	719.1741	-0.0592	0.0182	-0.0073	-0.0462	0.0165	0.9585
58.5221	-0.87546	2.705	0.83299	-0.93211	-1.2357	2.724	-7.0092	725.3776	-69.8047	254.5839	71.2602	712.0874	-0.0592	0.0182	-0.0073	-0.0462	0.0165	0.9585
58.5332	-1.0775	1.9069	0.93342	-0.61987	-1.4149	1.7922	-2.2168	724.8309	-69.0054	254.7443	68.2573	704.9881	-0.0592	0.0182	-0.0073	-0.0462	0.0165	0.9585
58.5443	-1.2939	0.68451	1.024	-0.14734	-1.5947	0.38881	3.1319	724.8275	-68.1233	255.2196	64.9846	698.109	-0.0592	0.0182	-0.0073	-0.0462	0.0165	0.9585
58.5554	-1.4472	-1.0351	1.0917	0.50781	-1.7348	-1.5955	9.0364	725.6804	-67.2285	256.1024	61.4995	691.7878	-0.0592	0.0182	-0.0073	-0.0462	0.0165	0.9585
58.5664	-1.4998	-3.236	1.0928	1.3368	-1.7674	-4.1242	15.4302	727.6195	-66.4298	257.4495	57.9201	686.3002	-0.0592	0.0182	-0.0073	-0.0462	0.0165	0.9585
58.5775	-1.3099	-5.7746	0.97282	2.2792	-1.5767	-7.0531	22.1156	730.6801	-65.8584	259.2385	54.4314	681.7973	-0.0592	0.0182	-0.0073	-0.0462	0.0165	0.9585
58.5886	-0.76583	-8.2817	0.66768	3.193	-1.0343	-9.94	28.8465	734.5764	-65.6344	261.3259	51.2258	678.1578	-0.0592	0.0182	-0.0073	-0.0462	0.0165	0.9585
58.5996	0.33931	-10.0758	0.080152	3.8164	0.049882	-12.0232	35.2757	738.678	-65.8637	263.4397	48.5134	675.0002	-0.0592	0.0182	-0.0073	-0.0462	0.0165	0.9585
58.6107	2.1777	-10.0408	-0.87703	3.7349	1.8469	-12.0183	41.0727	742.0417	-66.587	265.1962	46.4459	671.6645	-0.0592	0.0182	-0.0073	-0.0462	0.0165	0.9585
58.6218	4.9239	-6.6147	-2.288	2.3685	4.5133	-8.1517	45.8738	743.4983	-67.7927	266.1355	45.1425	667.2938	-0.0592	0.0182	-0.0073	-0.0462	0.0165	0.9585
58.6329	8.6381	2.2467	-4.1797	-1.033	8.0957	1.9371	49.3932	741.7853	-69.3597	265.7781	44.6102	660.9084	-0.0592	0.0182	-0.0073	-0.0462	0.0165	0.9585
58.6439	13.1884	18.8712	-6.4713	-7.3173	12.4437	20.9433	51.4063	735.7891	-71.0673	263.715	44.7527	651.658	-0.0592	0.0182	-0.0073	-0.0462	0.0165	0.9585
58.655	18.1115	45.5859	-8.9282	-17.3167	17.1007	51.5729	51.8431	724.7052	-72.6228	259.6705	45.3687	638.9016	-0.0592	0.0182	-0.0073	-0.0462	0.0165	0.9585
58.6661	22.4427	84.0392	-11.0438	-31.5968	21.1074	95.7808	50.7889	708.1692	-73.6446	253.5428	46.1263	622.3225	-0.0592	0.0182	-0.0073	-0.0462	0.0165	0.9585
